# Blender 4.2.1 LTS
# www.blender.org
o Plane
v 1.267374 18.516514 -2.305048
v 2.708249 18.516514 -3.124509
v 1.623343 -0.335733 -1.730531
v 2.806158 -0.329309 -1.729590
v 1.330199 0.231122 -1.702529
v -0.278727 1.363401 -1.549847
v -2.798528 3.022677 -1.268499
v -3.068156 4.213883 -1.013832
v -1.885195 5.376072 -0.362342
v -0.051541 6.258763 -0.717287
v 1.012815 6.974675 -1.659369
v 1.181931 7.680656 -1.761024
v 0.483964 8.498735 -1.076319
v -1.079138 9.399158 -0.459188
v -2.168027 10.519958 -0.697476
v -1.062846 12.135385 -0.681779
v 0.500606 14.328056 -1.244248
v 0.998539 15.450252 -1.835923
v 1.257114 16.621494 -2.201398
v 1.267374 17.709301 -2.305048
v 2.708249 17.709301 -3.124509
v 2.713702 16.584145 -3.022593
v 2.525879 15.001862 -2.601204
v 2.175681 13.748037 -2.024499
v 1.294708 12.642322 -1.403957
v 0.674748 10.688749 -0.913189
v 1.405807 9.395466 -1.385535
v 2.470933 8.323308 -2.311646
v 3.108637 7.530159 -2.951190
v 3.294984 6.762754 -3.159842
v 2.216954 6.070978 -2.070014
v 0.729839 5.290727 -1.154466
v 0.112459 4.142439 -1.013559
v 0.787711 2.391312 -1.460031
v 2.100233 1.045502 -1.643689
v 2.610352 0.216360 -1.706007
vn 0.0168 -0.0855 0.9962
vn 0.0009 -0.0459 0.9989
vn 0.0021 -0.0489 0.9988
vn 0.4944 -0.0000 0.8693
vn 0.4935 0.0408 0.8688
vn 0.4937 0.0330 0.8690
vn 0.4875 0.1325 0.8630
vn 0.4905 0.0994 0.8658
vn 0.4839 0.2246 0.8458
vn 0.4840 0.1796 0.8564
vn 0.3613 0.0901 0.9281
vn 0.4647 0.2167 0.8585
vn 0.1797 0.0496 0.9825
vn 0.3231 0.0720 0.9436
vn 0.1933 0.0564 0.9795
vn 0.1894 0.0550 0.9804
vn 0.2122 0.0577 0.9755
vn 0.4034 -0.1087 0.9085
vn 0.4305 -0.1375 0.8921
vn 0.4848 -0.2608 0.8349
vn 0.5226 -0.1283 0.8428
vn 0.5331 -0.0642 0.8436
vn 0.5333 0.2333 0.8132
vn 0.5382 0.0120 0.8427
vn 0.4012 -0.0800 0.9125
vn 0.5174 0.3180 0.7945
vn 0.1485 -0.2842 0.9472
vn 0.3862 -0.1013 0.9168
vn 0.0426 -0.2553 0.9659
vn 0.0594 -0.2657 0.9622
vn 0.0048 -0.2250 0.9743
vn 0.0261 -0.1297 0.9912
vn 0.0286 -0.1159 0.9929
vn 0.0188 -0.0905 0.9957
vt 0.000000 0.944538
vt 0.000000 1.000000
vt 1.000000 1.000000
vt 1.000000 0.944538
vt 0.000000 0.000000
vt 0.000000 0.062185
vt 1.000000 0.062185
vt 1.000000 0.000000
vt 0.000000 0.121008
vt 1.000000 0.121008
vt 0.000000 0.179832
vt 1.000000 0.179832
vt 0.000000 0.238655
vt 1.000000 0.238655
vt 0.000000 0.297479
vt 1.000000 0.297479
vt 0.000000 0.356303
vt 1.000000 0.356303
vt 0.000000 0.415126
vt 1.000000 0.415126
vt 0.000000 0.473950
vt 1.000000 0.473950
vt 0.000000 0.532773
vt 1.000000 0.532773
vt 0.000000 0.591597
vt 1.000000 0.591597
vt 0.000000 0.650420
vt 1.000000 0.650420
vt 0.000000 0.709244
vt 1.000000 0.709244
vt 0.000000 0.768067
vt 1.000000 0.768067
vt 0.000000 0.826891
vt 1.000000 0.826891
vt 0.000000 0.885714
vt 1.000000 0.885714
s 1
f 5/1/1 3/2/2 4/3/2 36/4/3
f 1/5/4 20/6/5 21/7/6 2/8/4
f 20/6/5 19/9/7 22/10/8 21/7/6
f 19/9/7 18/11/9 23/12/10 22/10/8
f 18/11/9 17/13/11 24/14/12 23/12/10
f 17/13/11 16/15/13 25/16/14 24/14/12
f 16/15/13 15/17/15 26/18/16 25/16/14
f 15/17/15 14/19/17 27/20/18 26/18/16
f 14/19/17 13/21/19 28/22/20 27/20/18
f 13/21/19 12/23/21 29/24/22 28/22/20
f 12/23/21 11/25/23 30/26/24 29/24/22
f 11/25/23 10/27/25 31/28/26 30/26/24
f 10/27/25 9/29/27 32/30/28 31/28/26
f 9/29/27 8/31/29 33/32/30 32/30/28
f 8/31/29 7/33/31 34/34/32 33/32/30
f 7/33/31 6/35/33 35/36/34 34/34/32
f 6/35/33 5/1/1 36/4/3 35/36/34
